<?xml version="1.0" standalone="no"?>
<!DOCTYPE svg PUBLIC "-//W3C//DTD SVG 20010904//EN"
 "http://www.w3.org/TR/2001/REC-SVG-20010904/DTD/svg10.dtd">
<svg version="1.0" xmlns="http://www.w3.org/2000/svg"
 width="735.000000pt" height="339.000000pt" viewBox="0 0 735.000000 339.000000"
 preserveAspectRatio="xMidYMid meet">

<g transform="translate(0.000000,339.000000) scale(0.100000,-0.100000)"
fill="#000000" stroke="none">
<path d="M4245 2456 c-49 -26 -162 -131 -201 -187 -26 -38 -31 -41 -64 -35
-238 39 -632 25 -762 -26 -38 -14 -35 -26 9 -44 29 -13 45 -14 73 -5 98 29
465 38 603 15 87 -15 21 -21 -230 -22 -148 0 -284 -4 -303 -9 l-35 -10 50 -9
c28 -5 147 -9 265 -8 184 0 228 3 306 22 132 31 145 37 139 64 -4 19 10 35 81
93 97 80 157 141 152 157 -8 23 -43 25 -83 4z"/>
<path d="M3183 2034 c11 -177 51 -284 141 -381 96 -104 244 -153 419 -139 48
4 87 12 87 16 0 5 -21 12 -47 16 -73 10 -200 60 -259 100 -63 44 -99 92 -115
157 -21 85 -2 80 114 -30 95 -90 189 -163 232 -180 14 -5 16 -3 7 13 -5 10
-12 56 -14 100 -10 182 -117 288 -328 324 -93 15 -160 40 -207 76 l-36 27 6
-99z"/>
<path d="M4054 2090 c-43 -40 -94 -60 -155 -60 -85 0 -209 -38 -209 -64 0 -7
14 -25 31 -42 47 -44 57 -73 65 -175 l7 -93 50 54 c27 30 74 92 105 138 30 45
59 81 66 79 16 -5 20 -65 7 -107 -15 -51 -71 -113 -147 -161 -35 -23 -64 -46
-64 -51 0 -5 12 -13 28 -19 23 -9 35 -7 79 16 128 66 193 202 192 400 -1 127
-4 133 -55 85z"/>
<path d="M1020 1166 c0 -2 7 -20 15 -39 11 -27 15 -75 15 -182 0 -107 -4 -155
-15 -182 -8 -19 -15 -39 -15 -44 0 -5 29 -9 65 -9 36 0 65 4 65 9 0 5 -7 22
-15 37 -9 18 -15 56 -15 97 l0 68 103 -3 102 -3 3 -46 c3 -40 -6 -80 -33 -141
-6 -16 0 -18 64 -18 39 0 71 3 71 8 0 4 -8 19 -17 32 -15 21 -18 49 -18 190 0
141 3 170 18 193 9 14 17 29 17 32 0 3 -31 5 -70 5 -38 0 -70 -2 -70 -5 0 -3
8 -17 17 -32 12 -18 17 -48 18 -102 l0 -76 -102 -3 -103 -3 0 78 c1 49 6 87
15 103 8 14 14 28 15 33 0 4 -29 7 -65 7 -36 0 -65 -2 -65 -4z"/>
<path d="M1480 1163 c1 -5 7 -19 15 -33 11 -19 14 -65 14 -185 0 -120 -3 -166
-14 -185 -28 -49 -26 -50 144 -50 l159 0 5 38 c2 20 1 41 -3 45 -4 4 -30 -4
-59 -19 -31 -16 -75 -29 -107 -32 l-54 -4 0 91 0 91 50 0 c38 0 50 4 50 15 0
11 -12 15 -50 15 l-51 0 3 98 3 97 50 -3 c29 -1 73 -13 103 -28 30 -15 57 -22
62 -18 4 5 6 24 3 42 l-5 32 -159 0 c-88 0 -159 -3 -159 -7z"/>
<path d="M1946 968 c-43 -112 -87 -212 -97 -224 -23 -25 -16 -34 29 -34 29 0
33 3 27 18 -11 25 -8 52 11 94 l17 38 108 0 109 0 15 -36 c17 -42 19 -80 5
-89 -6 -4 -8 -11 -5 -16 7 -10 135 -13 135 -2 0 4 -11 18 -24 32 -13 15 -58
115 -101 224 l-79 197 -36 0 -36 0 -78 -202z m142 55 c23 -60 44 -116 48 -125
6 -16 -3 -18 -96 -18 -100 0 -101 0 -94 23 3 12 10 27 14 32 4 6 22 52 41 103
18 50 36 92 39 92 4 0 25 -48 48 -107z"/>
<path d="M2330 1163 c1 -5 7 -19 15 -33 21 -37 21 -348 0 -376 -31 -42 -24
-44 145 -44 l160 0 0 30 c0 34 -6 36 -46 15 -18 -9 -57 -15 -101 -15 l-73 0 0
178 c0 158 2 181 20 215 l20 37 -70 0 c-38 0 -70 -3 -70 -7z"/>
<path d="M2580 1140 c0 -34 17 -39 55 -14 13 9 46 16 72 17 l48 2 3 -184 c2
-151 0 -188 -13 -207 -8 -13 -15 -28 -15 -34 0 -10 122 -15 132 -5 3 3 -3 23
-14 44 -16 33 -18 58 -16 212 l3 174 32 3 c18 2 53 -6 79 -17 60 -27 64 -27
64 9 l0 30 -215 0 -215 0 0 -30z"/>
<path d="M3061 1124 c19 -41 20 -62 17 -197 -2 -125 -6 -156 -20 -177 -10 -13
-18 -28 -18 -32 0 -5 32 -8 71 -8 64 0 70 2 64 18 -26 61 -34 93 -35 140 l0
52 105 0 105 0 0 -67 c0 -41 -6 -80 -15 -97 -8 -15 -15 -32 -15 -37 0 -5 29
-9 65 -9 36 0 65 4 65 9 0 5 -7 25 -15 44 -21 51 -21 320 0 361 8 15 15 32 15
37 0 5 -29 9 -65 9 -36 0 -65 -3 -65 -7 1 -5 7 -19 15 -33 9 -16 14 -54 15
-103 l0 -78 -102 3 -103 3 1 77 c1 53 7 85 18 102 9 14 16 28 16 31 0 3 -31 5
-69 5 l-70 0 20 -46z"/>
<path d="M3520 1138 c18 -29 20 -51 20 -193 0 -122 -4 -167 -15 -189 -22 -41
-19 -46 21 -46 33 0 36 2 28 23 -10 30 -17 387 -7 387 7 0 181 -264 248 -376
16 -27 26 -34 53 -34 l32 0 0 198 c1 152 4 203 15 222 21 36 19 40 -21 40 -31
0 -35 -2 -28 -17 11 -23 18 -383 7 -383 -4 0 -30 35 -58 78 -27 42 -85 132
-128 200 l-80 122 -53 0 -54 0 20 -32z"/>
<path d="M3997 1138 c26 -48 27 -351 1 -390 -9 -14 -14 -28 -11 -32 4 -3 78
-6 165 -6 l158 0 0 45 c0 25 -4 45 -9 45 -5 0 -29 -12 -54 -26 -27 -14 -70
-28 -102 -31 l-55 -6 0 92 0 91 45 0 c33 0 45 4 45 15 0 11 -12 15 -44 15 -24
0 -46 4 -48 10 -1 5 -2 51 0 101 l3 91 52 -6 c29 -4 74 -18 100 -31 27 -14 53
-25 58 -25 5 0 9 18 9 40 l0 40 -165 0 -166 0 18 -32z"/>
<path d="M4340 1140 c0 -34 17 -39 55 -14 13 9 46 16 72 17 l48 2 3 -178 c2
-143 0 -183 -13 -207 -24 -46 -20 -50 50 -50 70 0 74 4 50 50 -13 24 -15 64
-13 207 l3 178 48 -2 c26 -1 59 -8 72 -17 38 -25 55 -20 55 14 l0 30 -215 0
-215 0 0 -30z"/>
<path d="M4860 1160 c0 -5 43 -56 95 -112 l95 -103 -66 -63 c-53 -51 -68 -61
-80 -51 -17 14 -18 5 -2 -21 11 -17 8 -24 -17 -50 -37 -39 -24 -52 15 -15 26
25 34 28 49 18 16 -10 20 -9 25 10 5 20 101 127 113 127 3 0 30 -26 59 -57 35
-38 52 -64 50 -76 -4 -18 -4 -18 15 -1 19 17 21 16 54 -16 23 -23 35 -29 35
-19 0 9 -11 26 -25 39 -24 23 -24 24 -7 43 13 16 14 19 2 15 -10 -3 -41 18
-83 56 l-67 61 95 107 c52 58 95 109 95 112 0 17 -27 -3 -119 -90 -90 -83
-104 -94 -119 -82 -9 7 -58 50 -108 95 -92 83 -104 92 -104 73z"/>
<path d="M5483 1150 c-34 -20 -63 -66 -63 -100 0 -17 6 -20 39 -20 35 0 39 3
44 30 7 34 44 49 86 34 46 -17 41 -85 -9 -102 -44 -16 -42 -56 2 -68 40 -12
64 -50 54 -88 -9 -37 -63 -60 -103 -45 -34 13 -43 26 -43 62 0 26 -2 28 -37
25 -34 -3 -38 -6 -41 -33 -4 -35 20 -85 50 -104 12 -8 50 -16 83 -19 100 -8
159 30 172 112 7 47 -11 88 -48 110 -30 18 -30 18 -10 32 11 8 25 31 30 51 28
101 -109 183 -206 123z"/>
<path d="M5962 1161 c-27 -20 -164 -221 -173 -254 -15 -55 0 -103 46 -147 34
-33 40 -35 104 -35 58 0 72 4 103 27 76 58 86 148 24 215 -25 28 -41 36 -79
40 -26 3 -47 8 -47 10 0 3 23 34 50 69 28 35 50 65 50 68 0 6 -70 13 -78 7z
m40 -228 c34 -30 29 -100 -10 -129 -50 -39 -132 4 -132 68 1 74 84 110 142 61z"/>
<path d="M6249 1147 c-57 -38 -74 -85 -74 -209 0 -102 1 -108 30 -150 37 -52
66 -68 124 -68 59 0 104 29 130 85 30 63 30 206 0 274 -36 85 -137 117 -210
68z m106 -53 c31 -12 49 -65 48 -149 0 -92 -13 -131 -47 -146 -62 -29 -106 28
-106 139 0 122 40 181 105 156z"/>
</g>
</svg>
